# 3ds Max Wavefront OBJ Exporter v0.97b - (c)2007 guruware
# File Created: 21.01.2020 19:29:20

#
# object Box001
#

v  -0.5000 -0.5000 -0.5000
v  -0.5000 -0.5000 0.5000
v  0.5000 -0.5000 -0.5000
v  0.5000 -0.5000 0.5000
v  0.5000 0.5000 0.5000
v  -0.5000 0.5000 0.5000
v  0.5000 0.5000 -0.5000
v  -0.5000 0.5000 -0.5000
# 8 vertices

vn 0.0000 1.0000 -0.0000
vn 0.0000 -1.0000 -0.0000
vn 0.0000 0.0000 -1.0000
vn -1.0000 0.0000 -0.0000
vn 0.0000 0.0000 1.0000
vn 1.0000 0.0000 -0.0000
# 6 vertex normals

vt 1.0000 1.0000 0.0000
vt 1.0000 0.0000 0.0000
vt 0.0000 1.0000 0.0000
vt 0.0000 0.0000 0.0000
# 4 texture coords

o Box001
g Box001
f 1/1/1 2/2/1 3/3/1 
f 4/4/1 3/3/1 2/2/1 
f 5/2/2 6/4/2 7/1/2 
f 8/3/2 7/1/2 6/4/2 
f 4/2/3 2/4/3 5/1/3 
f 6/3/3 5/1/3 2/4/3 
f 3/2/4 4/4/4 7/1/4 
f 5/3/4 7/1/4 4/4/4 
f 1/2/5 3/4/5 8/1/5 
f 7/3/5 8/1/5 3/4/5 
f 2/2/6 1/4/6 6/1/6 
f 8/3/6 6/1/6 1/4/6 
# 12 faces

