# 3ds Max Wavefront OBJ Exporter v0.97b - (c)2007 guruware
# File Created: 30.09.2020 22:47:59

#
# object Sphere001
#

v  0.0000 0.5000 -0.0000
v  -0.0827 0.4568 -0.1858
v  0.0000 0.4568 -0.2033
v  -0.1512 0.4568 -0.1361
v  -0.1934 0.4568 -0.0628
v  -0.2023 0.4568 0.0213
v  -0.1761 0.4568 0.1017
v  -0.1195 0.4568 0.1646
v  -0.0423 0.4568 0.1989
v  0.0423 0.4568 0.1989
v  0.1195 0.4568 0.1646
v  0.1761 0.4568 0.1017
v  0.2023 0.4568 0.0213
v  0.1934 0.4568 -0.0628
v  0.1512 0.4568 -0.1361
v  0.0827 0.4568 -0.1858
v  -0.1512 0.3345 -0.3395
v  0.0000 0.3345 -0.3715
v  -0.2761 0.3345 -0.2486
v  -0.3534 0.3345 -0.1148
v  -0.3695 0.3345 0.0388
v  -0.3218 0.3345 0.1858
v  -0.2184 0.3345 0.3006
v  -0.0772 0.3345 0.3634
v  0.0772 0.3345 0.3634
v  0.2184 0.3345 0.3006
v  0.3218 0.3345 0.1858
v  0.3695 0.3345 0.0388
v  0.3534 0.3345 -0.1148
v  0.2761 0.3345 -0.2486
v  0.1512 0.3345 -0.3395
v  -0.1934 0.1545 -0.4344
v  0.0000 0.1545 -0.4755
v  -0.3534 0.1545 -0.3182
v  -0.4523 0.1545 -0.1470
v  -0.4729 0.1545 0.0497
v  -0.4118 0.1545 0.2377
v  -0.2795 0.1545 0.3847
v  -0.0988 0.1545 0.4651
v  0.0988 0.1545 0.4651
v  0.2795 0.1545 0.3847
v  0.4118 0.1545 0.2377
v  0.4729 0.1545 0.0497
v  0.4523 0.1545 -0.1470
v  0.3534 0.1545 -0.3182
v  0.1934 0.1545 -0.4344
v  -0.2023 -0.0523 -0.4543
v  0.0000 -0.0523 -0.4972
v  -0.3695 -0.0523 -0.3327
v  -0.4729 -0.0523 -0.1537
v  -0.4945 -0.0523 0.0520
v  -0.4306 -0.0523 0.2486
v  -0.2923 -0.0523 0.4023
v  -0.1034 -0.0523 0.4864
v  0.1034 -0.0523 0.4864
v  0.2923 -0.0523 0.4023
v  0.4306 -0.0523 0.2486
v  0.4945 -0.0523 0.0520
v  0.4729 -0.0523 -0.1537
v  0.3695 -0.0523 -0.3327
v  0.2023 -0.0523 -0.4543
v  -0.1761 -0.2500 -0.3956
v  0.0000 -0.2500 -0.4330
v  -0.3218 -0.2500 -0.2898
v  -0.4118 -0.2500 -0.1338
v  -0.4306 -0.2500 0.0452
v  -0.3750 -0.2500 0.2165
v  -0.2545 -0.2500 0.3503
v  -0.0900 -0.2500 0.4236
v  0.0900 -0.2500 0.4236
v  0.2545 -0.2500 0.3503
v  0.3750 -0.2500 0.2165
v  0.4306 -0.2500 0.0452
v  0.4118 -0.2500 -0.1338
v  0.3218 -0.2500 -0.2898
v  0.1761 -0.2500 -0.3956
v  -0.1195 -0.4045 -0.2685
v  0.0000 -0.4045 -0.2939
v  -0.2184 -0.4045 -0.1966
v  -0.2795 -0.4045 -0.0908
v  -0.2923 -0.4045 0.0307
v  -0.2545 -0.4045 0.1470
v  -0.1727 -0.4045 0.2377
v  -0.0611 -0.4045 0.2874
v  0.0611 -0.4045 0.2874
v  0.1727 -0.4045 0.2377
v  0.2545 -0.4045 0.1470
v  0.2923 -0.4045 0.0307
v  0.2795 -0.4045 -0.0908
v  0.2184 -0.4045 -0.1966
v  0.1195 -0.4045 -0.2685
v  0.0000 -0.5000 -0.0000
# 92 vertices

vn 0.0000 -1.0000 -0.0000
vn 0.1745 -0.9031 0.3923
vn 0.0000 -0.9031 0.4293
vn 0.3191 -0.9031 0.2873
vn 0.4083 -0.9032 0.1326
vn 0.4270 -0.9031 -0.0449
vn 0.3718 -0.9031 -0.2147
vn 0.2524 -0.9031 -0.3474
vn 0.0892 -0.9032 -0.4200
vn -0.0892 -0.9031 -0.4200
vn -0.2523 -0.9031 -0.3474
vn -0.3718 -0.9032 -0.2146
vn -0.4270 -0.9031 -0.0449
vn -0.4083 -0.9032 0.1326
vn -0.3191 -0.9031 0.2873
vn -0.1745 -0.9031 0.3923
vn 0.3070 -0.6557 0.6898
vn 0.0001 -0.6558 0.7550
vn 0.5611 -0.6557 0.5052
vn 0.7181 -0.6557 0.2332
vn 0.7509 -0.6557 -0.0789
vn 0.6539 -0.6557 -0.3776
vn 0.4438 -0.6557 -0.6108
vn 0.1570 -0.6557 -0.7385
vn -0.1570 -0.6557 -0.7385
vn -0.4438 -0.6557 -0.6109
vn -0.6539 -0.6557 -0.3776
vn -0.7509 -0.6557 -0.0790
vn -0.7181 -0.6557 0.2333
vn -0.5611 -0.6557 0.5052
vn -0.3071 -0.6557 0.6898
vn 0.3878 -0.3012 0.8711
vn 0.0000 -0.3012 0.9536
vn 0.7086 -0.3012 0.6381
vn 0.9069 -0.3012 0.2946
vn 0.9483 -0.3013 -0.0997
vn 0.8258 -0.3012 -0.4768
vn 0.5605 -0.3013 -0.7714
vn 0.1983 -0.3012 -0.9327
vn -0.1983 -0.3013 -0.9327
vn -0.5605 -0.3013 -0.7714
vn -0.8258 -0.3013 -0.4768
vn -0.9483 -0.3012 -0.0997
vn -0.9069 -0.3012 0.2946
vn -0.7086 -0.3012 0.6381
vn -0.3878 -0.3012 0.8711
vn 0.4046 0.1017 0.9088
vn -0.0000 0.1018 0.9948
vn 0.7393 0.1018 0.6657
vn 0.9461 0.1018 0.3074
vn 0.9894 0.1017 -0.1040
vn 0.8615 0.1017 -0.4974
vn 0.5848 0.1017 -0.8048
vn 0.2068 0.1018 -0.9731
vn -0.2068 0.1018 -0.9731
vn -0.5847 0.1018 -0.8048
vn -0.8615 0.1017 -0.4974
vn -0.9894 0.1017 -0.1039
vn -0.9461 0.1018 0.3074
vn -0.7393 0.1018 0.6656
vn -0.4046 0.1017 0.9088
vn 0.3549 0.4884 0.7972
vn -0.0000 0.4884 0.8726
vn 0.6485 0.4884 0.5839
vn 0.8299 0.4884 0.2696
vn 0.8678 0.4884 -0.0912
vn 0.7557 0.4885 -0.4363
vn 0.5129 0.4885 -0.7059
vn 0.1815 0.4885 -0.8535
vn -0.1815 0.4885 -0.8535
vn -0.5129 0.4885 -0.7059
vn -0.7556 0.4885 -0.4363
vn -0.8678 0.4884 -0.0911
vn -0.8299 0.4884 0.2697
vn -0.6485 0.4884 0.5838
vn -0.3548 0.4884 0.7973
vn 0.2311 0.8230 0.5189
vn 0.0000 0.8230 0.5680
vn 0.4221 0.8231 0.3800
vn 0.5402 0.8231 0.1755
vn 0.5649 0.8230 -0.0594
vn 0.4918 0.8231 -0.2840
vn 0.3338 0.8230 -0.4595
vn 0.1181 0.8231 -0.5555
vn -0.1181 0.8231 -0.5555
vn -0.3339 0.8230 -0.4595
vn -0.4918 0.8231 -0.2840
vn -0.5649 0.8230 -0.0593
vn -0.5402 0.8230 0.1755
vn -0.4221 0.8231 0.3800
vn -0.2310 0.8230 0.5189
vn 0.0000 1.0000 -0.0000
# 92 vertex normals

vt 0.0000 1.0000 0.0000
vt 0.0667 0.8667 0.0000
vt 0.0000 0.8667 0.0000
vt 0.0667 1.0000 0.0000
vt 0.1333 0.8667 0.0000
vt 0.1333 1.0000 0.0000
vt 0.2000 0.8667 0.0000
vt 0.2000 1.0000 0.0000
vt 0.2667 0.8667 0.0000
vt 0.2667 1.0000 0.0000
vt 0.3333 0.8667 0.0000
vt 0.3333 1.0000 0.0000
vt 0.4000 0.8667 0.0000
vt 0.4000 1.0000 0.0000
vt 0.4667 0.8667 0.0000
vt 0.4667 1.0000 0.0000
vt 0.5333 0.8667 0.0000
vt 0.5333 1.0000 0.0000
vt 0.6000 0.8667 0.0000
vt 0.6000 1.0000 0.0000
vt 0.6667 0.8667 0.0000
vt 0.6667 1.0000 0.0000
vt 0.7333 0.8667 0.0000
vt 0.7333 1.0000 0.0000
vt 0.8000 0.8667 0.0000
vt 0.8000 1.0000 0.0000
vt 0.8667 0.8667 0.0000
vt 0.8667 1.0000 0.0000
vt 0.9333 0.8667 0.0000
vt 0.9333 1.0000 0.0000
vt 1.0000 0.8667 0.0000
vt 0.0667 0.7333 0.0000
vt 0.0000 0.7333 0.0000
vt 0.1333 0.7333 0.0000
vt 0.2000 0.7333 0.0000
vt 0.2667 0.7333 0.0000
vt 0.3333 0.7333 0.0000
vt 0.4000 0.7333 0.0000
vt 0.4667 0.7333 0.0000
vt 0.5333 0.7333 0.0000
vt 0.6000 0.7333 0.0000
vt 0.6667 0.7333 0.0000
vt 0.7333 0.7333 0.0000
vt 0.8000 0.7333 0.0000
vt 0.8667 0.7333 0.0000
vt 0.9333 0.7333 0.0000
vt 1.0000 0.7333 0.0000
vt 0.0667 0.6000 0.0000
vt 0.0000 0.6000 0.0000
vt 0.1333 0.6000 0.0000
vt 0.2000 0.6000 0.0000
vt 0.2667 0.6000 0.0000
vt 0.3333 0.6000 0.0000
vt 0.4000 0.6000 0.0000
vt 0.4667 0.6000 0.0000
vt 0.5333 0.6000 0.0000
vt 0.6000 0.6000 0.0000
vt 0.6667 0.6000 0.0000
vt 0.7333 0.6000 0.0000
vt 0.8000 0.6000 0.0000
vt 0.8667 0.6000 0.0000
vt 0.9333 0.6000 0.0000
vt 1.0000 0.6000 0.0000
vt 0.0667 0.4667 0.0000
vt 0.0000 0.4667 0.0000
vt 0.1333 0.4667 0.0000
vt 0.2000 0.4667 0.0000
vt 0.2667 0.4667 0.0000
vt 0.3333 0.4667 0.0000
vt 0.4000 0.4667 0.0000
vt 0.4667 0.4667 0.0000
vt 0.5333 0.4667 0.0000
vt 0.6000 0.4667 0.0000
vt 0.6667 0.4667 0.0000
vt 0.7333 0.4667 0.0000
vt 0.8000 0.4667 0.0000
vt 0.8667 0.4667 0.0000
vt 0.9333 0.4667 0.0000
vt 1.0000 0.4667 0.0000
vt 0.0667 0.3333 0.0000
vt 0.0000 0.3333 0.0000
vt 0.1333 0.3333 0.0000
vt 0.2000 0.3333 0.0000
vt 0.2667 0.3333 0.0000
vt 0.3333 0.3333 0.0000
vt 0.4000 0.3333 0.0000
vt 0.4667 0.3333 0.0000
vt 0.5333 0.3333 0.0000
vt 0.6000 0.3333 0.0000
vt 0.6667 0.3333 0.0000
vt 0.7333 0.3333 0.0000
vt 0.8000 0.3333 0.0000
vt 0.8667 0.3333 0.0000
vt 0.9333 0.3333 0.0000
vt 1.0000 0.3333 0.0000
vt 0.0667 0.2000 0.0000
vt 0.0000 0.2000 0.0000
vt 0.1333 0.2000 0.0000
vt 0.2000 0.2000 0.0000
vt 0.2667 0.2000 0.0000
vt 0.3333 0.2000 0.0000
vt 0.4000 0.2000 0.0000
vt 0.4667 0.2000 0.0000
vt 0.5333 0.2000 0.0000
vt 0.6000 0.2000 0.0000
vt 0.6667 0.2000 0.0000
vt 0.7333 0.2000 0.0000
vt 0.8000 0.2000 0.0000
vt 0.8667 0.2000 0.0000
vt 0.9333 0.2000 0.0000
vt 1.0000 0.2000 0.0000
vt 0.0000 0.0667 0.0000
vt 0.0667 0.0667 0.0000
vt 0.1333 0.0667 0.0000
vt 0.2000 0.0667 0.0000
vt 0.2667 0.0667 0.0000
vt 0.3333 0.0667 0.0000
vt 0.4000 0.0667 0.0000
vt 0.4667 0.0667 0.0000
vt 0.5333 0.0667 0.0000
vt 0.6000 0.0667 0.0000
vt 0.6667 0.0667 0.0000
vt 0.7333 0.0667 0.0000
vt 0.8000 0.0667 0.0000
vt 0.8667 0.0667 0.0000
vt 0.9333 0.0667 0.0000
# 126 texture coords

o Sphere001
g Sphere001
f 1/1/1 2/2/2 3/3/3 
f 1/4/1 4/5/4 2/2/2 
f 1/6/1 5/7/5 4/5/4 
f 1/8/1 6/9/6 5/7/5 
f 1/10/1 7/11/7 6/9/6 
f 1/12/1 8/13/8 7/11/7 
f 1/14/1 9/15/9 8/13/8 
f 1/16/1 10/17/10 9/15/9 
f 1/18/1 11/19/11 10/17/10 
f 1/20/1 12/21/12 11/19/11 
f 1/22/1 13/23/13 12/21/12 
f 1/24/1 14/25/14 13/23/13 
f 1/26/1 15/27/15 14/25/14 
f 1/28/1 16/29/16 15/27/15 
f 1/30/1 3/31/3 16/29/16 
f 3/3/3 17/32/17 18/33/18 
f 3/3/3 2/2/2 17/32/17 
f 2/2/2 19/34/19 17/32/17 
f 2/2/2 4/5/4 19/34/19 
f 4/5/4 20/35/20 19/34/19 
f 4/5/4 5/7/5 20/35/20 
f 5/7/5 21/36/21 20/35/20 
f 5/7/5 6/9/6 21/36/21 
f 6/9/6 22/37/22 21/36/21 
f 6/9/6 7/11/7 22/37/22 
f 7/11/7 23/38/23 22/37/22 
f 7/11/7 8/13/8 23/38/23 
f 8/13/8 24/39/24 23/38/23 
f 8/13/8 9/15/9 24/39/24 
f 9/15/9 25/40/25 24/39/24 
f 9/15/9 10/17/10 25/40/25 
f 10/17/10 26/41/26 25/40/25 
f 10/17/10 11/19/11 26/41/26 
f 11/19/11 27/42/27 26/41/26 
f 11/19/11 12/21/12 27/42/27 
f 12/21/12 28/43/28 27/42/27 
f 12/21/12 13/23/13 28/43/28 
f 13/23/13 29/44/29 28/43/28 
f 13/23/13 14/25/14 29/44/29 
f 14/25/14 30/45/30 29/44/29 
f 14/25/14 15/27/15 30/45/30 
f 15/27/15 31/46/31 30/45/30 
f 15/27/15 16/29/16 31/46/31 
f 16/29/16 18/47/18 31/46/31 
f 16/29/16 3/31/3 18/47/18 
f 18/33/18 32/48/32 33/49/33 
f 18/33/18 17/32/17 32/48/32 
f 17/32/17 34/50/34 32/48/32 
f 17/32/17 19/34/19 34/50/34 
f 19/34/19 35/51/35 34/50/34 
f 19/34/19 20/35/20 35/51/35 
f 20/35/20 36/52/36 35/51/35 
f 20/35/20 21/36/21 36/52/36 
f 21/36/21 37/53/37 36/52/36 
f 21/36/21 22/37/22 37/53/37 
f 22/37/22 38/54/38 37/53/37 
f 22/37/22 23/38/23 38/54/38 
f 23/38/23 39/55/39 38/54/38 
f 23/38/23 24/39/24 39/55/39 
f 24/39/24 40/56/40 39/55/39 
f 24/39/24 25/40/25 40/56/40 
f 25/40/25 41/57/41 40/56/40 
f 25/40/25 26/41/26 41/57/41 
f 26/41/26 42/58/42 41/57/41 
f 26/41/26 27/42/27 42/58/42 
f 27/42/27 43/59/43 42/58/42 
f 27/42/27 28/43/28 43/59/43 
f 28/43/28 44/60/44 43/59/43 
f 28/43/28 29/44/29 44/60/44 
f 29/44/29 45/61/45 44/60/44 
f 29/44/29 30/45/30 45/61/45 
f 30/45/30 46/62/46 45/61/45 
f 30/45/30 31/46/31 46/62/46 
f 31/46/31 33/63/33 46/62/46 
f 31/46/31 18/47/18 33/63/33 
f 33/49/33 47/64/47 48/65/48 
f 33/49/33 32/48/32 47/64/47 
f 32/48/32 49/66/49 47/64/47 
f 32/48/32 34/50/34 49/66/49 
f 34/50/34 50/67/50 49/66/49 
f 34/50/34 35/51/35 50/67/50 
f 35/51/35 51/68/51 50/67/50 
f 35/51/35 36/52/36 51/68/51 
f 36/52/36 52/69/52 51/68/51 
f 36/52/36 37/53/37 52/69/52 
f 37/53/37 53/70/53 52/69/52 
f 37/53/37 38/54/38 53/70/53 
f 38/54/38 54/71/54 53/70/53 
f 38/54/38 39/55/39 54/71/54 
f 39/55/39 55/72/55 54/71/54 
f 39/55/39 40/56/40 55/72/55 
f 40/56/40 56/73/56 55/72/55 
f 40/56/40 41/57/41 56/73/56 
f 41/57/41 57/74/57 56/73/56 
f 41/57/41 42/58/42 57/74/57 
f 42/58/42 58/75/58 57/74/57 
f 42/58/42 43/59/43 58/75/58 
f 43/59/43 59/76/59 58/75/58 
f 43/59/43 44/60/44 59/76/59 
f 44/60/44 60/77/60 59/76/59 
f 44/60/44 45/61/45 60/77/60 
f 45/61/45 61/78/61 60/77/60 
f 45/61/45 46/62/46 61/78/61 
f 46/62/46 48/79/48 61/78/61 
f 46/62/46 33/63/33 48/79/48 
f 48/65/48 62/80/62 63/81/63 
f 48/65/48 47/64/47 62/80/62 
f 47/64/47 64/82/64 62/80/62 
f 47/64/47 49/66/49 64/82/64 
f 49/66/49 65/83/65 64/82/64 
f 49/66/49 50/67/50 65/83/65 
f 50/67/50 66/84/66 65/83/65 
f 50/67/50 51/68/51 66/84/66 
f 51/68/51 67/85/67 66/84/66 
f 51/68/51 52/69/52 67/85/67 
f 52/69/52 68/86/68 67/85/67 
f 52/69/52 53/70/53 68/86/68 
f 53/70/53 69/87/69 68/86/68 
f 53/70/53 54/71/54 69/87/69 
f 54/71/54 70/88/70 69/87/69 
f 54/71/54 55/72/55 70/88/70 
f 55/72/55 71/89/71 70/88/70 
f 55/72/55 56/73/56 71/89/71 
f 56/73/56 72/90/72 71/89/71 
f 56/73/56 57/74/57 72/90/72 
f 57/74/57 73/91/73 72/90/72 
f 57/74/57 58/75/58 73/91/73 
f 58/75/58 74/92/74 73/91/73 
f 58/75/58 59/76/59 74/92/74 
f 59/76/59 75/93/75 74/92/74 
f 59/76/59 60/77/60 75/93/75 
f 60/77/60 76/94/76 75/93/75 
f 60/77/60 61/78/61 76/94/76 
f 61/78/61 63/95/63 76/94/76 
f 61/78/61 48/79/48 63/95/63 
f 63/81/63 77/96/77 78/97/78 
f 63/81/63 62/80/62 77/96/77 
f 62/80/62 79/98/79 77/96/77 
f 62/80/62 64/82/64 79/98/79 
f 64/82/64 80/99/80 79/98/79 
f 64/82/64 65/83/65 80/99/80 
f 65/83/65 81/100/81 80/99/80 
f 65/83/65 66/84/66 81/100/81 
f 66/84/66 82/101/82 81/100/81 
f 66/84/66 67/85/67 82/101/82 
f 67/85/67 83/102/83 82/101/82 
f 67/85/67 68/86/68 83/102/83 
f 68/86/68 84/103/84 83/102/83 
f 68/86/68 69/87/69 84/103/84 
f 69/87/69 85/104/85 84/103/84 
f 69/87/69 70/88/70 85/104/85 
f 70/88/70 86/105/86 85/104/85 
f 70/88/70 71/89/71 86/105/86 
f 71/89/71 87/106/87 86/105/86 
f 71/89/71 72/90/72 87/106/87 
f 72/90/72 88/107/88 87/106/87 
f 72/90/72 73/91/73 88/107/88 
f 73/91/73 89/108/89 88/107/88 
f 73/91/73 74/92/74 89/108/89 
f 74/92/74 90/109/90 89/108/89 
f 74/92/74 75/93/75 90/109/90 
f 75/93/75 91/110/91 90/109/90 
f 75/93/75 76/94/76 91/110/91 
f 76/94/76 78/111/78 91/110/91 
f 76/94/76 63/95/63 78/111/78 
f 92/112/92 78/97/78 77/96/77 
f 92/113/92 77/96/77 79/98/79 
f 92/114/92 79/98/79 80/99/80 
f 92/115/92 80/99/80 81/100/81 
f 92/116/92 81/100/81 82/101/82 
f 92/117/92 82/101/82 83/102/83 
f 92/118/92 83/102/83 84/103/84 
f 92/119/92 84/103/84 85/104/85 
f 92/120/92 85/104/85 86/105/86 
f 92/121/92 86/105/86 87/106/87 
f 92/122/92 87/106/87 88/107/88 
f 92/123/92 88/107/88 89/108/89 
f 92/124/92 89/108/89 90/109/90 
f 92/125/92 90/109/90 91/110/91 
f 92/126/92 91/110/91 78/111/78 
# 180 faces

